<?xml version="1.0" encoding="utf-8"?>
<!-- Generator: Adobe Illustrator 21.0.0, SVG Export Plug-In . SVG Version: 6.00 Build 0)  -->
<svg version="1.1" id="Calque_1" xmlns="http://www.w3.org/2000/svg" xmlns:xlink="http://www.w3.org/1999/xlink" x="0px" y="0px"
	 viewBox="0 0 20.4 20.4" style="enable-background:new 0 0 20.4 20.4;" xml:space="preserve">
<style type="text/css">
	.st0{fill:#4682B4;}
</style>
<path class="st0" d="M10.2,0C4.6,0,0,4.6,0,10.2s4.6,10.2,10.2,10.2s10.2-4.6,10.2-10.2S15.8,0,10.2,0z M17.2,8.9l-0.9,1.3
	c-0.1,0.1-0.2,0.1-0.3,0.1L15.6,10v6.5c0,0.1-0.1,0.2-0.2,0.2h-3.6c-0.1,0-0.2-0.1-0.2-0.2v-4.8H8.8v4.8c0,0.1-0.1,0.2-0.2,0.2H5
	c-0.1,0-0.2-0.1-0.2-0.2V10l-0.4,0.3H4.3c-0.1,0-0.1,0-0.2-0.1L3.2,8.9c0,0,0-0.1,0-0.2c0-0.1,0-0.1,0.1-0.1l6.8-4.8
	c0.1-0.1,0.2-0.1,0.2,0L13.5,6V3.9c0-0.1,0.1-0.2,0.2-0.2h1.6c0.1,0,0.2,0.1,0.2,0.2v3.5l1.6,1.1l0.1,0.1
	C17.2,8.8,17.2,8.8,17.2,8.9z"/>
</svg>
