<?xml version="1.0" encoding="utf-8"?>
<!-- Generator: Adobe Illustrator 18.1.0, SVG Export Plug-In . SVG Version: 6.00 Build 0)  -->
<svg version="1.1" id="Calque_1" xmlns="http://www.w3.org/2000/svg" xmlns:xlink="http://www.w3.org/1999/xlink" x="0px" y="0px"
	 viewBox="0 0 20.4 20.4" enable-background="new 0 0 20.4 20.4" xml:space="preserve">
<path fill="#4682B4" d="M10.2,0C4.6,0,0,4.6,0,10.2s4.6,10.2,10.2,10.2c5.6,0,10.2-4.6,10.2-10.2S15.8,0,10.2,0z M16.1,12.8h-1.6
	h-0.4h-1.3v1.3v0.4v1.6c0,0.2-0.2,0.4-0.4,0.4H8c-0.2,0-0.4-0.2-0.4-0.4v-1.6v-0.4v-1.3h-2H5.2H4.3c-0.2,0-0.4-0.2-0.4-0.4V8
	c0-0.2,0.2-0.4,0.4-0.4h1.5h0.4h1.3V6.3V5.9V4.3c0-0.2,0.2-0.4,0.4-0.4h4.4c0.2,0,0.4,0.2,0.4,0.4v1.5v0.4v1.3h1.3h0.4h1.6
	c0.2,0,0.4,0.2,0.4,0.4v4.4h0C16.5,12.6,16.3,12.8,16.1,12.8z"/>
</svg>
