<?xml version="1.0" encoding="utf-8"?>
<!-- Generator: Adobe Illustrator 18.1.0, SVG Export Plug-In . SVG Version: 6.00 Build 0)  -->
<svg version="1.1" id="Calque_1" xmlns="http://www.w3.org/2000/svg" xmlns:xlink="http://www.w3.org/1999/xlink" x="0px" y="0px"
	 viewBox="0 0 20.4 20.4" enable-background="new 0 0 20.4 20.4" xml:space="preserve">
<path fill="#4682B4" d="M10.2,0C4.6,0,0,4.6,0,10.2s4.6,10.2,10.2,10.2c5.6,0,10.2-4.6,10.2-10.2S15.8,0,10.2,0z M9.2,2.9l1-0.9
	l1,0.9c1.9,1.6,1.9,3.7,0,5l-0.4,0.3l0.1-0.4c0.1-0.6-0.1-1.2-0.5-1.6L10.2,6L10,6.2C9.6,6.6,9.4,7.2,9.5,7.8l0.1,0.4L9.2,7.9
	C7.3,6.6,7.3,4.5,9.2,2.9z M13.4,18.1H6.9V8.5h6.5V18.1z"/>
</svg>
