<svg version="1.0" id="Calque_1" xmlns="http://www.w3.org/2000/svg" xmlns:xlink="http://www.w3.org/1999/xlink" x="0px" y="0px" viewBox="0 0 39.164 38.922" enable-background="new 0 0 39.164 38.922" xml:space="preserve">
<path fill="#4682B4" d="M19.399,39.028C8.703,39.028,0,30.325,0,19.628s8.703-19.4,19.399-19.4c10.697,0,19.4,8.703,19.4,19.4  S30.096,39.028,19.399,39.028z M19.399,3.054c-9.139,0-16.574,7.435-16.574,16.574s7.435,16.574,16.574,16.574  s16.574-7.435,16.574-16.574S28.538,3.054,19.399,3.054z"/>
<path fill="#4682B4" d="M14.919,2.873l0.154,7.175l0.309,0.424c0,0,0.231,0.501,0.231,0.887c0,0,0.231,1.35,0.772,2.353l0.347,0.772  c0,0,1.08,1.273,2.507,0.926l0.386-0.193l0.463-0.154l-0.347-0.174c0,0-0.231-0.347-0.096-0.656l0.193-0.405l0.174-0.347  l-0.231-0.174l0.289-0.212l0.482-0.328l0.251-0.598l-0.559-0.289c0,0,0.019-0.482,0.752-0.752c0,0,0.27,0.386,0.289,0.829  c0,0,0.945-0.309,1.543,0.289c0,0,1.273,1.369,0.058,2.353l-0.366,0.077l-0.251,0.231v0.386l0.135,0.27l0.347,0.154  c0,0,1.466,0.135,1.447,2.102c0,0,0.27,2.97-0.733,5.883l0.135,0.174l0.135,0.135h0.231l0.366,0.058l0.251,0.135l0.116,0.154  l0.077,0.27v0.212c0,0,0.039,0.154,0,0.231c-0.039,0.077-0.077,0.116-0.077,0.174s-0.039,0.154-0.058,0.212  c-0.019,0.058-0.039,0.309-0.039,0.309l0.019,0.154v0.501l-0.058,0.154l-0.135,0.829c0,0-0.231,0.579-1.254,0.424l-0.231,0.116  l0.27,3.144l-0.212,1.794l-0.058,1.871l-0.019,0.964l2.99,0.309l0.926,0.174c0,0,0.54-0.116,0.81-0.039  c0.27,0.077,0.868,0.135,0.868,0.135l0.406-0.591l-1.342,1.059l-4.096,0.918l-1.873-1.676l-0.926-0.636l0.154-1.794l0.077-0.482  l0.096-1.774l-0.212-2.218c0,0-0.27-1.62-0.27-1.755c0-0.135-0.077-0.386-0.077-0.386H20.03c0,0-1.369,1.987-2.025,2.507  c0,0-0.019,3.298-0.212,3.935l-0.27,0.424l-0.231,0.231l-0.116,0.27l-0.444,0.27l-1.408,0.135l-0.849-0.077l-0.405-0.328  c0,0,0.135-0.058,0.193-0.135c0.058-0.077,0.174-0.174,0.174-0.174l0.193-0.482l-0.039-0.598l-0.347-15.585l0.058-5.478  l-0.096-0.174l-0.058-0.096l0.019-0.347c0,0,0-0.058,0.019-0.116c0.019-0.058,0.039-0.231,0.039-0.231s0-0.039,0.019-0.116  c0.019-0.077,0.019-0.193,0.019-0.193l0.116-0.116l0.077-0.154l0.386-0.193l-0.309-7.252L14.919,2.873z M14.687,12.093l-0.154,0.309  c0,0-0.077,5.111,0,8.12c0,0,0.193,11.823,0.366,12.711l0.174-0.077l0.116-0.482c0,0,0.058-0.058,0.096-0.174  c0.039-0.116,0.328-1.466,0.328-1.466l0.077-0.386l0.096-2.141c0,0,0.174-0.579,0.636-1.312l1.022-1.852l0.945-1.582l0.501-0.463  l0.212-0.289l-0.154-0.347c0,0-0.675-2.72-0.463-4.32l0.096-0.656l-0.328-0.174c0,0-1.543-0.772-2.064-1.485  c0,0-0.984-1.639-1.215-2.72L14.687,12.093z"/>
<path fill="#4682B4" d="M33.585,32.106l-1.13,0.565l-0.636,0.494l-0.636,0.424c0,0-0.636,0.848-0.072,0.73  c0.806-0.168-0.817-0.561-1.174-0.715c-0.357-0.153-0.97,0-0.97,0s-0.255,0.408-0.408,0.51c-0.153,0.102-2.25,1.523-2.25,1.523  l-0.819-1.925l0,0c0,0,0.74-3.941,2.373-5.421l-0.918-0.706v-1.201c0,0-0.404-0.059-0.353-0.212  c0.051-0.153,0.078-0.188,0.283-0.494c0.204-0.306-1.225-0.241-1.072-0.394c0.153-0.153,0.408-0.306,0.51-0.459  c0.102-0.153,0.408-0.408,0.408-0.408l0.204-1.786l0.306-0.51c0,0,0.306-0.357,0.306-0.561c0-0.204,0.255-2.705,0.255-2.705  s0.204-1.531,0.204-1.786c0-0.255-0.408-0.919-0.612-1.327s-0.357-0.612-0.357-0.817s0.051-0.51,0.102-0.817s-0.051-0.612,0-1.48  s0.102-2.552,0.102-2.552s0.153-0.306,0.204-0.459c0.051-0.153-0.306-0.766-0.306-0.766l-0.612,0.715c0,0-0.408,1.072-0.561,0.204  s-0.255-1.123-0.255-1.123c0-0.408-0.102-0.97-0.102-1.429c0-0.459-0.051-0.919-0.051-0.919l0.51-1.94c0,0,0-0.255,0.102-0.561  c0.102-0.306,0.153-0.766,0.204-1.072s0.102-0.408,0-0.561C26.263,2.01,25.956,1.55,25.956,1.55s-1.072-0.102-1.225-0.153  c-0.153-0.051-2.603-0.102-2.603-0.102L20.138,1.04l-2.807-0.306c0,0,1.697-0.27,1.493-0.27c-0.204,0-0.868,0.051-1.021,0.051  S17.241,0.77,17.037,0.77s-1.684,0.408-1.684,0.408l-1.123,0.051l-0.633,1.141h-1.429l-0.408,0.102l-0.357,0.051  c0,0-0.102,0.102-0.255,0.204c-0.153,0.102-0.357,0.255-0.357,0.255l-0.286-0.07l0.97,0.97l0.357,0.612c0,0-0.306,0.664-0.459,0.664  c-0.153,0,0.102-0.102-0.153,0c-0.255,0.102-0.357,0.459-0.357,0.459l0.459,0.612l-0.51,0.817l-0.357,1.429l2.501,1.327  c0,0-0.459,1.021-1.072,1.991l-1.48,1.123l-1.021,0.357l0.919,0.357l0.204,0.408l-0.408,0.306L8.87,14.908l-0.868,0.357l0.255,1.531  c0,0,0.255,1.225-1.786,1.735h3.062c0,0,0.255,1.276-0.459,1.94l-0.492,0.474c0,0-0.463,0.207-0.769,0.258S5.924,21.46,5.924,21.46  l-0.97,0.051l-0.357,0.204l-0.868,0.102l-0.255,0.204c0,0,0.102,0.306,0.102,0.51c0,0.204-0.051,0.664,0,0.919  c0.051,0.255,0,0.561,0.051,0.766s2.603,0.306,2.603,0.306l-0.408,1.735l-1.021,0.868l1.021,0.459l0.766,0.51l0.102,0.612  l0.664,0.102l0.664-0.306l0.664-0.204l0.408-0.102l1.168,0.153l-1.488,6.311l-3.294-2.979l-3.602-9.464l1.483-11.654l6.074-6.145  l5.156-2.472l9.182,0.283l4.385,1.921l5.362,4.507l3.885,8.193l-2.543,11.795L33.585,32.106z"/>
<path fill="#4682B4" d="M24.254,3.619l0.893,9.42c0,0,0.375,0.178,0.543-0.488l0.159-0.262l0.596-4.812l0.145-0.005l0.118,0.511  l0.216,0.267l0.061-0.192l0.229-0.337c0,0,0.024,0.553,0.005,0.665s0.029,0.871,0.029,0.871S27.43,9.374,27.5,9.126l0.168-1.185  l0.484-3.79L24.254,3.619z"/>
<path fill="#4682B4" d="M19.38,2.203l1.199,0.623l0.02,0.83c0,0-0.353,1.747-0.416,2.242l-0.211,0.791l-0.116-0.321l-0.359,2.977  l0.094-5.769l-0.168,0.617l-0.278,1.969l-0.352,1.61l-0.172,2.45l-0.205,0.574l-0.144-0.387l-0.124,0.306l-0.603-3.039l-0.876-3.757  l0.076-1.802l2.538,0.102"/>
<path fill="#4682B4" d="M6.887,31.611l3.39,1.13l0.353,0.353l1.271,0.636l1.766,0.424l1.201,0.212l1.059-0.071  c0,0,0.424-0.071,0.636-0.071s0.613,0.107,0.613,0.107l0.376-0.178l0.283-0.071c0.353,0.283,0.636,0.494,0.636,0.494l0.636,0.141  c0,0,0.424,0,0.494,0.283s0.071,0.283,0.071,0.283l0.989,0.353l0.026-0.264l1.598,0.123l1.13-0.283l1.271-0.424h0.636l0.636,0.283  l0.283,0.918c0,0-1.695,1.201-1.907,1.201s-4.167,0.848-4.45,0.848c-0.283,0-3.955-0.141-4.167-0.212  c-0.212-0.071-5.933-2.684-5.933-2.684l-3.955-2.755L6.887,31.611z"/>
</svg>
