<?xml version="1.0" encoding="utf-8"?>
<!-- Generator: Adobe Illustrator 18.1.0, SVG Export Plug-In . SVG Version: 6.00 Build 0)  -->
<svg version="1.1" id="Calque_1" xmlns="http://www.w3.org/2000/svg" xmlns:xlink="http://www.w3.org/1999/xlink" x="0px" y="0px"
	 viewBox="0 0 20.4 20.4" enable-background="new 0 0 20.4 20.4" xml:space="preserve">
<g>
	<g>
		<polygon fill="#4682B4" points="5.7,15.8 7.8,15.8 11.8,15.8 14.6,15.8 14.6,4 5.7,4 		"/>
		<path fill="#4682B4" d="M9.1,3.5h2.1c0.2,0,0.3-0.1,0.3-0.3c0-0.2-0.1-0.3-0.3-0.3H9.1C9,2.8,8.8,3,8.8,3.2C8.8,3.3,9,3.5,9.1,3.5
			z"/>
		<path fill="#4682B4" d="M10.9,16.5H9.5c-0.3,0-0.5,0.2-0.5,0.4v0.3c0,0.2,0.2,0.4,0.5,0.4h1.4c0.3,0,0.5-0.2,0.5-0.4v-0.3
			C11.4,16.7,11.2,16.5,10.9,16.5z"/>
		<path fill="#4682B4" d="M10.2,0C4.6,0,0,4.6,0,10.2s4.6,10.2,10.2,10.2c5.6,0,10.2-4.6,10.2-10.2S15.8,0,10.2,0z M15.5,3.3v1.2
			v11.3v0.6v0.4V17v0c0,0.3-0.2,0.5-0.4,0.7c-0.3,0.3-0.6,0.4-1,0.4h-2.3h-4H6.3c-0.4,0-0.8-0.1-1-0.4c-0.2-0.2-0.3-0.4-0.4-0.7v0
			v-0.6v-0.6V4.6V3.5V3.3v0C4.9,3,5,2.8,5.2,2.6c0.3-0.3,0.6-0.4,1-0.4h7.8c0.4,0,0.8,0.1,1,0.4C15.3,2.8,15.5,3,15.5,3.3L15.5,3.3z
			"/>
	</g>
</g>
</svg>
